<?xml version="1.0" standalone="yes"?>

<svg version="1.1" viewBox="0.0 0.0 844.0 805.0" fill="none" stroke="none" stroke-linecap="square" stroke-miterlimit="10" xmlns="http://www.w3.org/2000/svg" xmlns:xlink="http://www.w3.org/1999/xlink"><clipPath id="p.0"><path d="m0 0l844.0 0l0 805.0l-844.0 0l0 -805.0z" clip-rule="nonzero"></path></clipPath><g clip-path="url(#p.0)"><path fill="#000000" fill-opacity="0.0" d="m0 0l844.70605 0l0 805.8819l-844.70605 0z" fill-rule="nonzero"></path><path fill="#c9daf8" d="m8.0 669.00024l0 0c0 -6.6275635 5.37269 -12.000244 12.00024 -12.000244l55.464085 0c3.182663 0 6.23497 1.2642822 8.485451 3.5147705c2.2504807 2.2504883 3.5147858 5.3027954 3.5147858 8.485474l0 47.99951c0 6.6275635 -5.3726883 12.000244 -12.0002365 12.000244l-55.464085 0c-6.62755 0 -12.00024 -5.3726807 -12.00024 -12.000244z" fill-rule="nonzero"></path><path stroke="#6fa8dc" stroke-width="2.0" stroke-linejoin="round" stroke-linecap="butt" d="m8.0 669.00024l0 0c0 -6.6275635 5.37269 -12.000244 12.00024 -12.000244l55.464085 0c3.182663 0 6.23497 1.2642822 8.485451 3.5147705c2.2504807 2.2504883 3.5147858 5.3027954 3.5147858 8.485474l0 47.99951c0 6.6275635 -5.3726883 12.000244 -12.0002365 12.000244l-55.464085 0c-6.62755 0 -12.00024 -5.3726807 -12.00024 -12.000244z" fill-rule="nonzero"></path><path fill="#fff2cc" d="m284.47244 112.979004l0 0c0 -20.143173 16.329254 -36.472443 36.472443 -36.472443l0 0c9.673096 0 18.950012 3.8426208 25.789917 10.682533c6.839905 6.839905 10.682526 16.116814 10.682526 25.78991l0 0c0 20.143173 -16.329285 36.472443 -36.472443 36.472443l0 0c-20.143188 0 -36.472443 -16.32927 -36.472443 -36.472443z" fill-rule="nonzero"></path><path stroke="#fce5cd" stroke-width="2.0" stroke-linejoin="round" stroke-linecap="butt" d="m284.47244 112.979004l0 0c0 -20.143173 16.329254 -36.472443 36.472443 -36.472443l0 0c9.673096 0 18.950012 3.8426208 25.789917 10.682533c6.839905 6.839905 10.682526 16.116814 10.682526 25.78991l0 0c0 20.143173 -16.329285 36.472443 -36.472443 36.472443l0 0c-20.143188 0 -36.472443 -16.32927 -36.472443 -36.472443z" fill-rule="nonzero"></path><path fill="#e6b8af" d="m290.59055 113.20735l0 0c0 -14.942131 12.113007 -27.055122 27.055115 -27.055122l0 0c7.175476 0 14.057037 2.850441 19.13086 7.924263c5.073822 5.073822 7.9242554 11.955391 7.9242554 19.13086l0 0c0 14.942123 -12.112976 27.055115 -27.055115 27.055115l0 0c-14.942108 0 -27.055115 -12.112991 -27.055115 -27.055115z" fill-rule="nonzero"></path><path fill="#fff2cc" d="m480.25986 261.64566l0 0c0 -20.143158 16.329254 -36.472427 36.472443 -36.472427l0 0c9.673096 0 18.950012 3.8426208 25.789917 10.682526c6.839905 6.839905 10.682495 16.116821 10.682495 25.789902l0 0c0 20.143188 -16.329285 36.472443 -36.472412 36.472443l0 0c-20.143188 0 -36.472443 -16.329254 -36.472443 -36.472443z" fill-rule="nonzero"></path><path stroke="#fce5cd" stroke-width="2.0" stroke-linejoin="round" stroke-linecap="butt" d="m480.25986 261.64566l0 0c0 -20.143158 16.329254 -36.472427 36.472443 -36.472427l0 0c9.673096 0 18.950012 3.8426208 25.789917 10.682526c6.839905 6.839905 10.682495 16.116821 10.682495 25.789902l0 0c0 20.143188 -16.329285 36.472443 -36.472412 36.472443l0 0c-20.143188 0 -36.472443 -16.329254 -36.472443 -36.472443z" fill-rule="nonzero"></path><path fill="#e6b8af" d="m486.37796 261.87402l0 0c0 -14.942139 12.112976 -27.05513 27.055084 -27.05513l0 0c7.175476 0 14.057068 2.8504486 19.13086 7.9242706c5.0738525 5.073807 7.9243164 11.955383 7.9243164 19.13086l0 0c0 14.942108 -12.113037 27.055115 -27.055176 27.055115l0 0c-14.942108 0 -27.055084 -12.113007 -27.055084 -27.055115z" fill-rule="nonzero"></path><path fill="#e6b8af" d="m273.88977 268.47244l0 0c0 -20.143173 21.067291 -36.472443 47.055115 -36.472443l0 0c25.987823 0 47.055115 16.32927 47.055115 36.472443l0 0c0 20.143158 -21.067291 36.472443 -47.055115 36.472443l0 0c-25.987823 0 -47.055115 -16.329285 -47.055115 -36.472443z" fill-rule="nonzero"></path><path stroke="#ea9999" stroke-width="2.0" stroke-linejoin="round" stroke-linecap="butt" d="m273.88977 268.47244l0 0c0 -20.143173 21.067291 -36.472443 47.055115 -36.472443l0 0c25.987823 0 47.055115 16.32927 47.055115 36.472443l0 0c0 20.143158 -21.067291 36.472443 -47.055115 36.472443l0 0c-25.987823 0 -47.055115 -16.329285 -47.055115 -36.472443z" fill-rule="nonzero"></path><path fill="#dd7e6b" d="m301.18356 261.64566l0 0c0 -11.045685 8.954315 -19.999985 20.0 -19.999985l0 0c5.3043213 0 10.391418 2.107132 14.142151 5.8578644c3.750702 3.7507172 5.857849 8.837799 5.857849 14.14212l0 0c0 11.045715 -8.954315 20.0 -20.0 20.0l0 0c-11.045685 0 -20.0 -8.954285 -20.0 -20.0z" fill-rule="nonzero"></path><path fill="#000000" fill-opacity="0.0" d="m320.83466 160.02959l0.22045898 62.48819" fill-rule="nonzero"></path><path stroke="#000000" stroke-width="2.0" stroke-linejoin="round" stroke-linecap="butt" d="m320.83466 160.02959l0.1781311 50.488266" fill-rule="evenodd"></path><path fill="#000000" stroke="#000000" stroke-width="2.0" stroke-linecap="butt" d="m317.70935 210.52951l3.3354492 9.064484l3.2714233 -9.087799z" fill-rule="evenodd"></path><path fill="#c9daf8" d="m672.0 733.0587l0 -684.8504l74.11023 684.8504z" fill-rule="nonzero"></path><path stroke="#a4c2f4" stroke-width="2.0" stroke-linejoin="round" stroke-linecap="butt" d="m672.0 733.0587l0 -684.8504l74.11023 684.8504z" fill-rule="nonzero"></path><path fill="#fff2cc" d="m759.8254 47.896503l4.5669556 684.8189l-78.677185 -684.1575z" fill-rule="nonzero"></path><path stroke="#fce5cd" stroke-width="2.0" stroke-linejoin="round" stroke-linecap="butt" d="m759.8254 47.896503l4.5669556 684.8189l-78.677185 -684.1575z" fill-rule="nonzero"></path><path fill="#e6b8af" d="m128.0 412.47244l0 0c0 -20.143188 21.067291 -36.472443 47.055115 -36.472443l0 0c25.987823 0 47.055115 16.329254 47.055115 36.472443l0 0c0 20.143158 -21.067291 36.472443 -47.055115 36.472443l0 0c-25.987823 0 -47.055115 -16.329285 -47.055115 -36.472443z" fill-rule="nonzero"></path><path stroke="#ea9999" stroke-width="2.0" stroke-linejoin="round" stroke-linecap="butt" d="m128.0 412.47244l0 0c0 -20.143188 21.067291 -36.472443 47.055115 -36.472443l0 0c25.987823 0 47.055115 16.329254 47.055115 36.472443l0 0c0 20.143158 -21.067291 36.472443 -47.055115 36.472443l0 0c-25.987823 0 -47.055115 -16.329285 -47.055115 -36.472443z" fill-rule="nonzero"></path><path fill="#dd7e6b" d="m155.29381 405.64566l0 0c0 -11.045685 8.9543 -20.0 20.0 -20.0l0 0c5.3043365 0 10.391403 2.1071472 14.142136 5.8578796c3.7507324 3.7507324 5.8578644 8.837799 5.8578644 14.14212l0 0c0 11.045715 -8.9543 20.0 -20.0 20.0l0 0c-11.0457 0 -20.0 -8.954285 -20.0 -20.0z" fill-rule="nonzero"></path><path fill="#e6b8af" d="m409.88977 412.47244l0 0c0 -20.143188 21.067291 -36.472443 47.055115 -36.472443l0 0c25.987823 0 47.055115 16.329254 47.055115 36.472443l0 0c0 20.143158 -21.067291 36.472443 -47.055115 36.472443l0 0c-25.987823 0 -47.055115 -16.329285 -47.055115 -36.472443z" fill-rule="nonzero"></path><path stroke="#ea9999" stroke-width="2.0" stroke-linejoin="round" stroke-linecap="butt" d="m409.88977 412.47244l0 0c0 -20.143188 21.067291 -36.472443 47.055115 -36.472443l0 0c25.987823 0 47.055115 16.329254 47.055115 36.472443l0 0c0 20.143158 -21.067291 36.472443 -47.055115 36.472443l0 0c-25.987823 0 -47.055115 -16.329285 -47.055115 -36.472443z" fill-rule="nonzero"></path><path fill="#dd7e6b" d="m437.18356 405.64566l0 0c0 -11.045685 8.954315 -20.0 20.0 -20.0l0 0c5.3043213 0 10.391418 2.1071472 14.142151 5.8578796c3.750702 3.7507324 5.857849 8.837799 5.857849 14.14212l0 0c0 11.045715 -8.954315 20.0 -20.0 20.0l0 0c-11.045685 0 -20.0 -8.954285 -20.0 -20.0z" fill-rule="nonzero"></path><path fill="#e6b8af" d="m38.47769 541.4412l0 0c0 -20.143188 21.067291 -36.472443 47.055115 -36.472443l0 0c25.987823 0 47.055115 16.329254 47.055115 36.472443l0 0c0 20.143188 -21.067291 36.472473 -47.055115 36.472473l0 0c-25.987823 0 -47.055115 -16.329285 -47.055115 -36.472473z" fill-rule="nonzero"></path><path stroke="#ea9999" stroke-width="2.0" stroke-linejoin="round" stroke-linecap="butt" d="m38.47769 541.4412l0 0c0 -20.143188 21.067291 -36.472443 47.055115 -36.472443l0 0c25.987823 0 47.055115 16.329254 47.055115 36.472443l0 0c0 20.143188 -21.067291 36.472473 -47.055115 36.472473l0 0c-25.987823 0 -47.055115 -16.329285 -47.055115 -36.472473z" fill-rule="nonzero"></path><path fill="#dd7e6b" d="m65.7715 534.61444l0 0c0 -11.045654 8.954308 -20.0 20.0 -20.0l0 0c5.304329 0 10.391411 2.1071777 14.142136 5.85791c3.7507324 3.7506714 5.8578644 8.837769 5.8578644 14.14209l0 0c0 11.045715 -8.954308 20.0 -20.0 20.0l0 0c-11.045692 0 -20.0 -8.954285 -20.0 -20.0z" fill-rule="nonzero"></path><path fill="#e6b8af" d="m334.82416 541.4412l0 0c0 -20.143188 21.067291 -36.472443 47.055115 -36.472443l0 0c25.987823 0 47.055115 16.329254 47.055115 36.472443l0 0c0 20.143188 -21.067291 36.472473 -47.055115 36.472473l0 0c-25.987823 0 -47.055115 -16.329285 -47.055115 -36.472473z" fill-rule="nonzero"></path><path stroke="#ea9999" stroke-width="2.0" stroke-linejoin="round" stroke-linecap="butt" d="m334.82416 541.4412l0 0c0 -20.143188 21.067291 -36.472443 47.055115 -36.472443l0 0c25.987823 0 47.055115 16.329254 47.055115 36.472443l0 0c0 20.143188 -21.067291 36.472473 -47.055115 36.472473l0 0c-25.987823 0 -47.055115 -16.329285 -47.055115 -36.472473z" fill-rule="nonzero"></path><path fill="#dd7e6b" d="m362.11795 534.61444l0 0c0 -11.045654 8.954315 -20.0 20.0 -20.0l0 0c5.3043213 0 10.391418 2.1071777 14.14212 5.85791c3.7507324 3.7506714 5.8578796 8.837769 5.8578796 14.14209l0 0c0 11.045715 -8.954315 20.0 -20.0 20.0l0 0c-11.045685 0 -20.0 -8.954285 -20.0 -20.0z" fill-rule="nonzero"></path><path fill="#e6b8af" d="m201.88977 542.61444l0 0c0 -20.143127 21.067291 -36.472412 47.055115 -36.472412l0 0c25.987823 0 47.055115 16.329285 47.055115 36.472412l0 0c0 20.143188 -21.067291 36.472473 -47.055115 36.472473l0 0c-25.987823 0 -47.055115 -16.329285 -47.055115 -36.472473z" fill-rule="nonzero"></path><path stroke="#ea9999" stroke-width="2.0" stroke-linejoin="round" stroke-linecap="butt" d="m201.88977 542.61444l0 0c0 -20.143127 21.067291 -36.472412 47.055115 -36.472412l0 0c25.987823 0 47.055115 16.329285 47.055115 36.472412l0 0c0 20.143188 -21.067291 36.472473 -47.055115 36.472473l0 0c-25.987823 0 -47.055115 -16.329285 -47.055115 -36.472473z" fill-rule="nonzero"></path><path fill="#dd7e6b" d="m229.18356 535.7877l0 0c0 -11.045715 8.9543 -20.000061 20.0 -20.000061l0 0c5.3043365 0 10.391418 2.1071777 14.142151 5.85791c3.750702 3.7507324 5.857849 8.837769 5.857849 14.142151l0 0c0 11.045654 -8.954315 20.0 -20.0 20.0l0 0c-11.0457 0 -20.0 -8.954346 -20.0 -20.0z" fill-rule="nonzero"></path><path fill="#e6b8af" d="m498.2362 542.61444l0 0c0 -20.143127 21.067322 -36.472412 47.055115 -36.472412l0 0c25.987854 0 47.055115 16.329285 47.055115 36.472412l0 0c0 20.143188 -21.06726 36.472473 -47.055115 36.472473l0 0c-25.987793 0 -47.055115 -16.329285 -47.055115 -36.472473z" fill-rule="nonzero"></path><path stroke="#ea9999" stroke-width="2.0" stroke-linejoin="round" stroke-linecap="butt" d="m498.2362 542.61444l0 0c0 -20.143127 21.067322 -36.472412 47.055115 -36.472412l0 0c25.987854 0 47.055115 16.329285 47.055115 36.472412l0 0c0 20.143188 -21.06726 36.472473 -47.055115 36.472473l0 0c-25.987793 0 -47.055115 -16.329285 -47.055115 -36.472473z" fill-rule="nonzero"></path><path fill="#dd7e6b" d="m525.53 535.7877l0 0c0 -11.045715 8.954285 -20.000061 20.0 -20.000061l0 0c5.3043213 0 10.391418 2.1071777 14.142151 5.85791c3.7507324 3.7507324 5.857849 8.837769 5.857849 14.142151l0 0c0 11.045654 -8.954285 20.0 -20.0 20.0l0 0c-11.045715 0 -20.0 -8.954346 -20.0 -20.0z" fill-rule="nonzero"></path><path fill="#000000" fill-opacity="0.0" d="m201.41733 457.25986l30.582672 38.740143" fill-rule="nonzero"></path><path stroke="#000000" stroke-width="2.0" stroke-linejoin="round" stroke-linecap="butt" d="m201.41733 457.25986l23.147186 29.32135" fill-rule="evenodd"></path><path fill="#000000" stroke="#000000" stroke-width="2.0" stroke-linecap="butt" d="m221.97163 488.6281l8.216705 5.076996l-3.0309296 -9.170807z" fill-rule="evenodd"></path><path fill="#000000" fill-opacity="0.0" d="m135.53543 457.8051l-22.362206 37.102356" fill-rule="nonzero"></path><path stroke="#000000" stroke-width="2.0" stroke-linejoin="round" stroke-linecap="butt" d="m135.53543 457.8051l-16.16774 26.824799" fill-rule="evenodd"></path><path fill="#000000" stroke="#000000" stroke-width="2.0" stroke-linecap="butt" d="m116.53839 482.92462l-1.8558807 9.478729l7.5144806 -6.0681763z" fill-rule="evenodd"></path><path fill="#76a5af" d="m33.245003 685.61444l0 0c0 -11.045715 9.75103 -20.0 21.77953 -20.0l0 0c12.0285 0 21.77953 8.954285 21.77953 20.0l0 0c0 11.045654 -9.75103 20.0 -21.77953 20.0l0 0c-12.0285 0 -21.77953 -8.954346 -21.77953 -20.0z" fill-rule="nonzero"></path><path fill="#000000" fill-opacity="0.0" d="m72.35974 592.40344l-10.992123 41.95276" fill-rule="nonzero"></path><path stroke="#000000" stroke-width="2.0" stroke-linejoin="round" stroke-linecap="butt" d="m72.35974 592.40344l-7.9506454 30.344604" fill-rule="evenodd"></path><path fill="#000000" stroke="#000000" stroke-width="2.0" stroke-linecap="butt" d="m61.2135 621.9107l0.89517593 9.617126l5.4960136 -7.942505z" fill-rule="evenodd"></path><path fill="#000000" fill-opacity="0.0" d="m103.35974 592.0l18.992126 41.95276" fill-rule="nonzero"></path><path stroke="#000000" stroke-width="2.0" stroke-linejoin="round" stroke-linecap="butt" d="m103.35974 592.0l14.043198 31.020813" fill-rule="evenodd"></path><path fill="#000000" stroke="#000000" stroke-width="2.0" stroke-linecap="butt" d="m114.393486 624.3832l6.752571 6.906006l-0.7336731 -9.630798z" fill-rule="evenodd"></path><path fill="#000000" fill-opacity="0.0" d="m230.00787 592.60516l-10.992126 41.95276" fill-rule="nonzero"></path><path stroke="#000000" stroke-width="2.0" stroke-linejoin="round" stroke-linecap="butt" d="m230.00787 592.60516l-7.950638 30.344604" fill-rule="evenodd"></path><path fill="#000000" stroke="#000000" stroke-width="2.0" stroke-linecap="butt" d="m218.86163 622.1125l0.8951721 9.617065l5.4960175 -7.942505z" fill-rule="evenodd"></path><path fill="#000000" fill-opacity="0.0" d="m261.00787 592.2017l18.992126 41.95276" fill-rule="nonzero"></path><path stroke="#000000" stroke-width="2.0" stroke-linejoin="round" stroke-linecap="butt" d="m261.00787 592.2017l14.043182 31.020813" fill-rule="evenodd"></path><path fill="#000000" stroke="#000000" stroke-width="2.0" stroke-linecap="butt" d="m272.04163 624.5849l6.7525635 6.906006l-0.7336731 -9.630798z" fill-rule="evenodd"></path><path fill="#000000" fill-opacity="0.0" d="m363.0602 592.8068l-10.992126 41.95276" fill-rule="nonzero"></path><path stroke="#000000" stroke-width="2.0" stroke-linejoin="round" stroke-linecap="butt" d="m363.0602 592.8068l-7.9506836 30.344604" fill-rule="evenodd"></path><path fill="#000000" stroke="#000000" stroke-width="2.0" stroke-linecap="butt" d="m351.91397 622.31415l0.8951721 9.617126l5.496002 -7.942566z" fill-rule="evenodd"></path><path fill="#000000" fill-opacity="0.0" d="m394.0602 592.40344l18.992126 41.95276" fill-rule="nonzero"></path><path stroke="#000000" stroke-width="2.0" stroke-linejoin="round" stroke-linecap="butt" d="m394.0602 592.40344l14.043182 31.020752" fill-rule="evenodd"></path><path fill="#000000" stroke="#000000" stroke-width="2.0" stroke-linecap="butt" d="m405.09393 624.78656l6.752594 6.906067l-0.7336731 -9.630798z" fill-rule="evenodd"></path><path fill="#000000" fill-opacity="0.0" d="m532.30444 593.00854l-10.992126 41.95276" fill-rule="nonzero"></path><path stroke="#000000" stroke-width="2.0" stroke-linejoin="round" stroke-linecap="butt" d="m532.30444 593.00854l-7.9506226 30.344666" fill-rule="evenodd"></path><path fill="#000000" stroke="#000000" stroke-width="2.0" stroke-linecap="butt" d="m521.1582 622.51587l0.89520264 9.617126l5.4960327 -7.942566z" fill-rule="evenodd"></path><path fill="#000000" fill-opacity="0.0" d="m563.30444 592.60516l18.992126 41.95276" fill-rule="nonzero"></path><path stroke="#000000" stroke-width="2.0" stroke-linejoin="round" stroke-linecap="butt" d="m563.30444 592.60516l14.043213 31.020752" fill-rule="evenodd"></path><path fill="#000000" stroke="#000000" stroke-width="2.0" stroke-linecap="butt" d="m574.3382 624.98834l6.7525635 6.906006l-0.7336426 -9.630798z" fill-rule="evenodd"></path><path fill="#000000" fill-opacity="0.0" d="m432.13403 457.25986l-30.582672 38.740143" fill-rule="nonzero"></path><path stroke="#000000" stroke-width="2.0" stroke-linejoin="round" stroke-linecap="butt" d="m432.13403 457.25986l-23.147186 29.32135" fill-rule="evenodd"></path><path fill="#000000" stroke="#000000" stroke-width="2.0" stroke-linecap="butt" d="m406.39395 484.5343l-3.0309448 9.170807l8.216705 -5.076996z" fill-rule="evenodd"></path><path fill="#000000" fill-opacity="0.0" d="m498.0159 457.8051l22.362213 37.102356" fill-rule="nonzero"></path><path stroke="#000000" stroke-width="2.0" stroke-linejoin="round" stroke-linecap="butt" d="m498.0159 457.8051l16.167755 26.824799" fill-rule="evenodd"></path><path fill="#000000" stroke="#000000" stroke-width="2.0" stroke-linecap="butt" d="m511.35434 486.33517l7.514496 6.0681763l-1.855896 -9.478729z" fill-rule="evenodd"></path><path fill="#000000" fill-opacity="0.0" d="m73.53822 89.20735l195.11809 0l0 48.0l-195.11809 0z" fill-rule="nonzero"></path><path fill="#000000" d="m131.52414 115.75235l1.6875 -0.140625q0.125 1.015625 0.5625 1.671875q0.4375 0.65625 1.359375 1.0625q0.9375 0.40625 2.09375 0.40625q1.03125 0 1.8125 -0.3125q0.796875 -0.3125 1.1875 -0.84375q0.390625 -0.53125 0.390625 -1.15625q0 -0.640625 -0.375 -1.109375q-0.375 -0.484375 -1.234375 -0.8125q-0.546875 -0.21875 -2.421875 -0.65625q-1.875 -0.453125 -2.625 -0.859375q-0.96875 -0.515625 -1.453125 -1.265625q-0.46875 -0.75 -0.46875 -1.6875q0 -1.03125 0.578125 -1.921875q0.59375 -0.90625 1.703125 -1.359375q1.125 -0.46875 2.5 -0.46875q1.515625 0 2.671875 0.484375q1.15625 0.484375 1.765625 1.4375q0.625 0.9375 0.671875 2.140625l-1.71875 0.125q-0.140625 -1.28125 -0.953125 -1.9375q-0.796875 -0.671875 -2.359375 -0.671875q-1.625 0 -2.375 0.609375q-0.75 0.59375 -0.75 1.4375q0 0.734375 0.53125 1.203125q0.515625 0.46875 2.703125 0.96875q2.203125 0.5 3.015625 0.875q1.1875 0.546875 1.75 1.390625q0.578125 0.828125 0.578125 1.921875q0 1.09375 -0.625 2.0625q-0.625 0.953125 -1.796875 1.484375q-1.15625 0.53125 -2.609375 0.53125q-1.84375 0 -3.09375 -0.53125q-1.25 -0.546875 -1.96875 -1.625q-0.703125 -1.078125 -0.734375 -2.453125zm16.490448 2.875l0.234375 1.484375q-0.703125 0.140625 -1.265625 0.140625q-0.90625 0 -1.40625 -0.28125q-0.5 -0.296875 -0.703125 -0.75q-0.203125 -0.46875 -0.203125 -1.984375l0 -5.65625l-1.234375 0l0 -1.3125l1.234375 0l0 -2.4375l1.65625 -1.0l0 3.4375l1.6875 0l0 1.3125l-1.6875 0l0 5.75q0 0.71875 0.078125 0.921875q0.09375 0.203125 0.296875 0.328125q0.203125 0.125 0.578125 0.125q0.265625 0 0.734375 -0.078125zm8.277054 -1.671875l1.71875 0.21875q-0.40625 1.5 -1.515625 2.34375q-1.09375 0.828125 -2.8125 0.828125q-2.15625 0 -3.421875 -1.328125q-1.265625 -1.328125 -1.265625 -3.734375q0 -2.484375 1.265625 -3.859375q1.28125 -1.375 3.328125 -1.375q1.984375 0 3.234375 1.34375q1.25 1.34375 1.25 3.796875q0 0.140625 -0.015625 0.4375l-7.34375 0q0.09375 1.625 0.921875 2.484375q0.828125 0.859375 2.0625 0.859375q0.90625 0 1.546875 -0.46875q0.65625 -0.484375 1.046875 -1.546875zm-5.484375 -2.703125l5.5 0q-0.109375 -1.234375 -0.625 -1.859375q-0.796875 -0.96875 -2.078125 -0.96875q-1.140625 0 -1.9375 0.78125q-0.78125 0.765625 -0.859375 2.046875zm9.110092 5.875l0 -9.859375l1.5 0l0 1.390625q0.453125 -0.71875 1.21875 -1.15625q0.78125 -0.453125 1.765625 -0.453125q1.09375 0 1.796875 0.453125q0.703125 0.453125 0.984375 1.28125q1.171875 -1.734375 3.046875 -1.734375q1.46875 0 2.25 0.8125q0.796875 0.8125 0.796875 2.5l0 6.765625l-1.671875 0l0 -6.203125q0 -1.0 -0.15625 -1.4375q-0.15625 -0.453125 -0.59375 -0.71875q-0.421875 -0.265625 -1.0 -0.265625q-1.03125 0 -1.71875 0.6875q-0.6875 0.6875 -0.6875 2.21875l0 5.71875l-1.671875 0l0 -6.40625q0 -1.109375 -0.40625 -1.65625q-0.40625 -0.5625 -1.34375 -0.5625q-0.703125 0 -1.3125 0.375q-0.59375 0.359375 -0.859375 1.078125q-0.265625 0.71875 -0.265625 2.0625l0 5.109375l-1.671875 0zm30.64598 -4.765625l1.796875 0.453125q-0.5625 2.21875 -2.03125 3.390625q-1.46875 1.15625 -3.59375 1.15625q-2.203125 0 -3.578125 -0.890625q-1.375 -0.90625 -2.09375 -2.59375q-0.71875 -1.703125 -0.71875 -3.65625q0 -2.125 0.796875 -3.703125q0.8125 -1.578125 2.3125 -2.390625q1.5 -0.828125 3.296875 -0.828125q2.046875 0 3.4375 1.046875q1.390625 1.03125 1.9375 2.90625l-1.765625 0.421875q-0.46875 -1.484375 -1.375 -2.15625q-0.90625 -0.6875 -2.265625 -0.6875q-1.5625 0 -2.625 0.75q-1.046875 0.75 -1.484375 2.03125q-0.421875 1.265625 -0.421875 2.609375q0 1.734375 0.5 3.03125q0.515625 1.28125 1.578125 1.921875q1.078125 0.640625 2.3125 0.640625q1.515625 0 2.5625 -0.859375q1.046875 -0.875 1.421875 -2.59375zm10.301071 1.59375l1.7187653 0.21875q-0.40625 1.5 -1.5156403 2.34375q-1.09375 0.828125 -2.8125 0.828125q-2.15625 0 -3.421875 -1.328125q-1.265625 -1.328125 -1.265625 -3.734375q0 -2.484375 1.265625 -3.859375q1.28125 -1.375 3.328125 -1.375q1.984375 0 3.234375 1.34375q1.2500153 1.34375 1.2500153 3.796875q0 0.140625 -0.015625 0.4375l-7.3437653 0q0.09375 1.625 0.921875 2.484375q0.828125 0.859375 2.0625 0.859375q0.90625 0 1.546875 -0.46875q0.65625 -0.484375 1.046875 -1.546875zm-5.484375 -2.703125l5.5 0q-0.109375 -1.234375 -0.625 -1.859375q-0.796875 -0.96875 -2.078125 -0.96875q-1.140625 0 -1.9375 0.78125q-0.78125 0.765625 -0.859375 2.046875zm9.078842 5.875l0 -13.59375l1.671875 0l0 13.59375l-1.671875 0zm4.1448364 0l0 -13.59375l1.671875 0l0 13.59375l-1.671875 0z" fill-rule="nonzero"></path><path fill="#000000" fill-opacity="0.0" d="m60.4731 244.70079l212.72441 0l0 47.999985l-212.72441 0z" fill-rule="nonzero"></path><path fill="#000000" d="m106.60543 275.6208l0 -13.59375l5.125 0q1.359375 0 2.078125 0.125q1.0 0.171875 1.671875 0.640625q0.671875 0.46875 1.078125 1.3125q0.421875 0.84375 0.421875 1.84375q0 1.734375 -1.109375 2.9375q-1.09375 1.203125 -3.984375 1.203125l-3.484375 0l0 5.53125l-1.796875 0zm1.796875 -7.140625l3.515625 0q1.75 0 2.46875 -0.640625q0.734375 -0.65625 0.734375 -1.828125q0 -0.859375 -0.4375 -1.46875q-0.421875 -0.609375 -1.125 -0.796875q-0.453125 -0.125 -1.671875 -0.125l-3.484375 0l0 4.859375zm10.412323 7.140625l0 -9.859375l1.5 0l0 1.5q0.578125 -1.046875 1.0625 -1.375q0.484375 -0.34375 1.078125 -0.34375q0.84375 0 1.71875 0.546875l-0.578125 1.546875q-0.609375 -0.359375 -1.234375 -0.359375q-0.546875 0 -0.984375 0.328125q-0.421875 0.328125 -0.609375 0.90625q-0.28125 0.890625 -0.28125 1.953125l0 5.15625l-1.671875 0zm5.603302 -4.921875q0 -2.734375 1.53125 -4.0625q1.265625 -1.09375 3.0937424 -1.09375q2.03125 0 3.3125 1.34375q1.296875 1.328125 1.296875 3.671875q0 1.90625 -0.578125 3.0q-0.5625 1.078125 -1.65625 1.6875q-1.078125 0.59375 -2.375 0.59375q-2.0624924 0 -3.3437424 -1.328125q-1.28125 -1.328125 -1.28125 -3.8125zm1.71875 0q0 1.890625 0.828125 2.828125q0.828125 0.9375 2.0781174 0.9375q1.25 0 2.0625 -0.9375q0.828125 -0.953125 0.828125 -2.890625q0 -1.828125 -0.828125 -2.765625q-0.828125 -0.9375 -2.0625 -0.9375q-1.2499924 0 -2.0781174 0.9375q-0.828125 0.9375 -0.828125 2.828125zm8.985085 5.734375l1.609375 0.25q0.109375 0.75 0.578125 1.09375q0.609375 0.453125 1.6875 0.453125q1.171875 0 1.796875 -0.46875q0.625 -0.453125 0.859375 -1.28125q0.125 -0.515625 0.109375 -2.15625q-1.09375 1.296875 -2.71875 1.296875q-2.03125 0 -3.15625 -1.46875q-1.109375 -1.46875 -1.109375 -3.515625q0 -1.40625 0.515625 -2.59375q0.515625 -1.203125 1.484375 -1.84375q0.96875 -0.65625 2.265625 -0.65625q1.75 0 2.875 1.40625l0 -1.1875l1.546875 0l0 8.515625q0 2.3125 -0.46875 3.265625q-0.46875 0.96875 -1.484375 1.515625q-1.015625 0.5625 -2.5 0.5625q-1.765625 0 -2.859375 -0.796875q-1.078125 -0.796875 -1.03125 -2.390625zm1.375 -5.921875q0 1.953125 0.765625 2.84375q0.78125 0.890625 1.9375 0.890625q1.140625 0 1.921875 -0.890625q0.78125 -0.890625 0.78125 -2.78125q0 -1.8125 -0.8125 -2.71875q-0.796875 -0.921875 -1.921875 -0.921875q-1.109375 0 -1.890625 0.90625q-0.78125 0.890625 -0.78125 2.671875zm16.047592 1.9375l1.71875 0.21875q-0.40625 1.5 -1.515625 2.34375q-1.09375 0.828125 -2.8125 0.828125q-2.15625 0 -3.421875 -1.328125q-1.265625 -1.328125 -1.265625 -3.734375q0 -2.484375 1.265625 -3.859375q1.28125 -1.375 3.328125 -1.375q1.984375 0 3.234375 1.34375q1.25 1.34375 1.25 3.796875q0 0.140625 -0.015625 0.4375l-7.34375 0q0.09375 1.625 0.921875 2.484375q0.828125 0.859375 2.0625 0.859375q0.90625 0 1.546875 -0.46875q0.65625 -0.484375 1.046875 -1.546875zm-5.484375 -2.703125l5.5 0q-0.109375 -1.234375 -0.625 -1.859375q-0.796875 -0.96875 -2.078125 -0.96875q-1.140625 0 -1.9375 0.78125q-0.78125 0.765625 -0.859375 2.046875zm9.110092 5.875l0 -9.859375l1.5 0l0 1.40625q1.09375 -1.625 3.140625 -1.625q0.890625 0 1.640625 0.328125q0.75 0.3125 1.109375 0.84375q0.375 0.515625 0.53125 1.21875q0.09375 0.46875 0.09375 1.625l0 6.0625l-1.671875 0l0 -6.0q0 -1.015625 -0.203125 -1.515625q-0.1875 -0.515625 -0.6875 -0.8125q-0.5 -0.296875 -1.171875 -0.296875q-1.0625 0 -1.84375 0.671875q-0.765625 0.671875 -0.765625 2.578125l0 5.375l-1.671875 0zm10.391342 -11.6875l0 -1.90625l1.671875 0l0 1.90625l-1.671875 0zm0 11.6875l0 -9.859375l1.671875 0l0 9.859375l-1.671875 0zm7.785446 -1.5l0.234375 1.484375q-0.703125 0.140625 -1.265625 0.140625q-0.90625 0 -1.40625 -0.28125q-0.5 -0.296875 -0.703125 -0.75q-0.203125 -0.46875 -0.203125 -1.984375l0 -5.65625l-1.234375 0l0 -1.3125l1.234375 0l0 -2.4375l1.65625 -1.0l0 3.4375l1.6875 0l0 1.3125l-1.6875 0l0 5.75q0 0.71875 0.078125 0.921875q0.09375 0.203125 0.296875 0.328125q0.203125 0.125 0.578125 0.125q0.265625 0 0.734375 -0.078125zm0.90205383 -3.421875q0 -2.734375 1.53125 -4.0625q1.265625 -1.09375 3.09375 -1.09375q2.03125 0 3.3125 1.34375q1.296875 1.328125 1.296875 3.671875q0 1.90625 -0.578125 3.0q-0.5625 1.078125 -1.65625 1.6875q-1.078125 0.59375 -2.375 0.59375q-2.0625 0 -3.34375 -1.328125q-1.28125 -1.328125 -1.28125 -3.8125zm1.71875 0q0 1.890625 0.828125 2.828125q0.828125 0.9375 2.078125 0.9375q1.25 0 2.0625 -0.9375q0.828125 -0.953125 0.828125 -2.890625q0 -1.828125 -0.828125 -2.765625q-0.828125 -0.9375 -2.0625 -0.9375q-1.25 0 -2.078125 0.9375q-0.828125 0.9375 -0.828125 2.828125zm9.266342 4.921875l0 -9.859375l1.5 0l0 1.5q0.578125 -1.046875 1.0625153 -1.375q0.484375 -0.34375 1.078125 -0.34375q0.84375 0 1.71875 0.546875l-0.578125 1.546875q-0.609375 -0.359375 -1.234375 -0.359375q-0.546875 0 -0.984375 0.328125q-0.42189026 0.328125 -0.60939026 0.90625q-0.28125 0.890625 -0.28125 1.953125l0 5.15625l-1.671875 0zm21.33348 -4.765625l1.796875 0.453125q-0.5625 2.21875 -2.03125 3.390625q-1.46875 1.15625 -3.59375 1.15625q-2.203125 0 -3.578125 -0.890625q-1.375 -0.90625 -2.09375 -2.59375q-0.71875 -1.703125 -0.71875 -3.65625q0 -2.125 0.796875 -3.703125q0.8125 -1.578125 2.3125 -2.390625q1.5 -0.828125 3.296875 -0.828125q2.046875 0 3.4375 1.046875q1.390625 1.03125 1.9375 2.90625l-1.765625 0.421875q-0.46875 -1.484375 -1.375 -2.15625q-0.90625 -0.6875 -2.265625 -0.6875q-1.5625 0 -2.625 0.75q-1.046875 0.75 -1.484375 2.03125q-0.421875 1.265625 -0.421875 2.609375q0 1.734375 0.5 3.03125q0.515625 1.28125 1.578125 1.921875q1.078125 0.640625 2.3125 0.640625q1.515625 0 2.5625 -0.859375q1.046875 -0.875 1.421875 -2.59375zm10.301086 1.59375l1.71875 0.21875q-0.40625 1.5 -1.515625 2.34375q-1.09375 0.828125 -2.8125 0.828125q-2.15625 0 -3.421875 -1.328125q-1.265625 -1.328125 -1.265625 -3.734375q0 -2.484375 1.265625 -3.859375q1.28125 -1.375 3.328125 -1.375q1.984375 0 3.234375 1.34375q1.25 1.34375 1.25 3.796875q0 0.140625 -0.015625 0.4375l-7.34375 0q0.09375 1.625 0.921875 2.484375q0.828125 0.859375 2.0625 0.859375q0.90625 0 1.546875 -0.46875q0.65625 -0.484375 1.046875 -1.546875zm-5.484375 -2.703125l5.5 0q-0.109375 -1.234375 -0.625 -1.859375q-0.796875 -0.96875 -2.078125 -0.96875q-1.140625 0 -1.9375 0.78125q-0.78125 0.765625 -0.859375 2.046875zm9.078827 5.875l0 -13.59375l1.671875 0l0 13.59375l-1.671875 0zm4.1448364 0l0 -13.59375l1.671875 0l0 13.59375l-1.671875 0z" fill-rule="nonzero"></path><path fill="#c9daf8" d="m87.47427 669.00024l0 0c0 -6.6275635 5.372696 -12.000244 12.000244 -12.000244l55.46408 0c3.182663 0 6.23497 1.2642822 8.485458 3.5147705c2.250473 2.2504883 3.5147858 5.3027954 3.5147858 8.485474l0 47.99951c0 6.6275635 -5.372696 12.000244 -12.000244 12.000244l-55.46408 0c-6.627548 0 -12.000244 -5.3726807 -12.000244 -12.000244z" fill-rule="nonzero"></path><path stroke="#6fa8dc" stroke-width="2.0" stroke-linejoin="round" stroke-linecap="butt" d="m87.47427 669.00024l0 0c0 -6.6275635 5.372696 -12.000244 12.000244 -12.000244l55.46408 0c3.182663 0 6.23497 1.2642822 8.485458 3.5147705c2.250473 2.2504883 3.5147858 5.3027954 3.5147858 8.485474l0 47.99951c0 6.6275635 -5.372696 12.000244 -12.000244 12.000244l-55.46408 0c-6.627548 0 -12.000244 -5.3726807 -12.000244 -12.000244z" fill-rule="nonzero"></path><path fill="#76a5af" d="m112.719284 685.61444l0 0c0 -11.045715 9.751022 -20.0 21.779526 -20.0l0 0c12.028503 0 21.779526 8.954285 21.779526 20.0l0 0c0 11.045654 -9.751022 20.0 -21.779526 20.0l0 0c-12.028503 0 -21.779526 -8.954346 -21.779526 -20.0z" fill-rule="nonzero"></path><path fill="#c9daf8" d="m166.93884 669.00024l0 0c0 -6.6275635 5.372696 -12.000244 12.000244 -12.000244l55.46408 0c3.182663 0 6.23497 1.2642822 8.485458 3.5147705c2.250473 2.2504883 3.5147858 5.3027954 3.5147858 8.485474l0 47.99951c0 6.6275635 -5.372696 12.000244 -12.000244 12.000244l-55.46408 0c-6.627548 0 -12.000244 -5.3726807 -12.000244 -12.000244z" fill-rule="nonzero"></path><path stroke="#6fa8dc" stroke-width="2.0" stroke-linejoin="round" stroke-linecap="butt" d="m166.93884 669.00024l0 0c0 -6.6275635 5.372696 -12.000244 12.000244 -12.000244l55.46408 0c3.182663 0 6.23497 1.2642822 8.485458 3.5147705c2.250473 2.2504883 3.5147858 5.3027954 3.5147858 8.485474l0 47.99951c0 6.6275635 -5.372696 12.000244 -12.000244 12.000244l-55.46408 0c-6.627548 0 -12.000244 -5.3726807 -12.000244 -12.000244z" fill-rule="nonzero"></path><path fill="#76a5af" d="m192.18385 685.61444l0 0c0 -11.045715 9.751022 -20.0 21.779526 -20.0l0 0c12.028503 0 21.779526 8.954285 21.779526 20.0l0 0c0 11.045654 -9.751022 20.0 -21.779526 20.0l0 0c-12.028503 0 -21.779526 -8.954346 -21.779526 -20.0z" fill-rule="nonzero"></path><path fill="#c9daf8" d="m246.41312 669.00024l0 0c0 -6.6275635 5.372696 -12.000244 12.000244 -12.000244l55.46408 0c3.1826782 0 6.2349854 1.2642822 8.485443 3.5147705c2.2504883 2.2504883 3.514801 5.3027954 3.514801 8.485474l0 47.99951c0 6.6275635 -5.3726807 12.000244 -12.000244 12.000244l-55.46408 0c-6.627548 0 -12.000244 -5.3726807 -12.000244 -12.000244z" fill-rule="nonzero"></path><path stroke="#6fa8dc" stroke-width="2.0" stroke-linejoin="round" stroke-linecap="butt" d="m246.41312 669.00024l0 0c0 -6.6275635 5.372696 -12.000244 12.000244 -12.000244l55.46408 0c3.1826782 0 6.2349854 1.2642822 8.485443 3.5147705c2.2504883 2.2504883 3.514801 5.3027954 3.514801 8.485474l0 47.99951c0 6.6275635 -5.3726807 12.000244 -12.000244 12.000244l-55.46408 0c-6.627548 0 -12.000244 -5.3726807 -12.000244 -12.000244z" fill-rule="nonzero"></path><path fill="#76a5af" d="m271.6581 685.61444l0 0c0 -11.045715 9.751038 -20.0 21.779541 -20.0l0 0c12.028503 0 21.77951 8.954285 21.77951 20.0l0 0c0 11.045654 -9.751007 20.0 -21.77951 20.0l0 0c-12.028503 0 -21.779541 -8.954346 -21.779541 -20.0z" fill-rule="nonzero"></path><path fill="#c9daf8" d="m326.06116 669.00024l0 0c0 -6.6275635 5.372711 -12.000244 12.000244 -12.000244l55.46408 0c3.1826782 0 6.2349854 1.2642822 8.485474 3.5147705c2.2504578 2.2504883 3.5147705 5.3027954 3.5147705 8.485474l0 47.99951c0 6.6275635 -5.3726807 12.000244 -12.000244 12.000244l-55.46408 0c-6.627533 0 -12.000244 -5.3726807 -12.000244 -12.000244z" fill-rule="nonzero"></path><path stroke="#6fa8dc" stroke-width="2.0" stroke-linejoin="round" stroke-linecap="butt" d="m326.06116 669.00024l0 0c0 -6.6275635 5.372711 -12.000244 12.000244 -12.000244l55.46408 0c3.1826782 0 6.2349854 1.2642822 8.485474 3.5147705c2.2504578 2.2504883 3.5147705 5.3027954 3.5147705 8.485474l0 47.99951c0 6.6275635 -5.3726807 12.000244 -12.000244 12.000244l-55.46408 0c-6.627533 0 -12.000244 -5.3726807 -12.000244 -12.000244z" fill-rule="nonzero"></path><path fill="#76a5af" d="m351.30615 685.61444l0 0c0 -11.045715 9.751007 -20.0 21.77951 -20.0l0 0c12.028503 0 21.779541 8.954285 21.779541 20.0l0 0c0 11.045654 -9.751038 20.0 -21.779541 20.0l0 0c-12.028503 0 -21.77951 -8.954346 -21.77951 -20.0z" fill-rule="nonzero"></path><path fill="#c9daf8" d="m405.53543 669.00024l0 0c0 -6.6275635 5.3726807 -12.000244 12.000244 -12.000244l55.46408 0c3.1826782 0 6.2349854 1.2642822 8.485443 3.5147705c2.2504883 2.2504883 3.514801 5.3027954 3.514801 8.485474l0 47.99951c0 6.6275635 -5.3726807 12.000244 -12.000244 12.000244l-55.46408 0c-6.6275635 0 -12.000244 -5.3726807 -12.000244 -12.000244z" fill-rule="nonzero"></path><path stroke="#6fa8dc" stroke-width="2.0" stroke-linejoin="round" stroke-linecap="butt" d="m405.53543 669.00024l0 0c0 -6.6275635 5.3726807 -12.000244 12.000244 -12.000244l55.46408 0c3.1826782 0 6.2349854 1.2642822 8.485443 3.5147705c2.2504883 2.2504883 3.514801 5.3027954 3.514801 8.485474l0 47.99951c0 6.6275635 -5.3726807 12.000244 -12.000244 12.000244l-55.46408 0c-6.6275635 0 -12.000244 -5.3726807 -12.000244 -12.000244z" fill-rule="nonzero"></path><path fill="#76a5af" d="m430.78043 685.61444l0 0c0 -11.045715 9.751038 -20.0 21.779541 -20.0l0 0c12.028503 0 21.77951 8.954285 21.77951 20.0l0 0c0 11.045654 -9.751007 20.0 -21.77951 20.0l0 0c-12.028503 0 -21.779541 -8.954346 -21.779541 -20.0z" fill-rule="nonzero"></path><path fill="#c9daf8" d="m485.0 669.00024l0 0c0 -6.6275635 5.3726807 -12.000244 12.000244 -12.000244l55.46411 0c3.1826172 0 6.2349243 1.2642822 8.485413 3.5147705c2.2504883 2.2504883 3.5147705 5.3027954 3.5147705 8.485474l0 47.99951c0 6.6275635 -5.3726807 12.000244 -12.000183 12.000244l-55.46411 0c-6.6275635 0 -12.000244 -5.3726807 -12.000244 -12.000244z" fill-rule="nonzero"></path><path stroke="#6fa8dc" stroke-width="2.0" stroke-linejoin="round" stroke-linecap="butt" d="m485.0 669.00024l0 0c0 -6.6275635 5.3726807 -12.000244 12.000244 -12.000244l55.46411 0c3.1826172 0 6.2349243 1.2642822 8.485413 3.5147705c2.2504883 2.2504883 3.5147705 5.3027954 3.5147705 8.485474l0 47.99951c0 6.6275635 -5.3726807 12.000244 -12.000183 12.000244l-55.46411 0c-6.6275635 0 -12.000244 -5.3726807 -12.000244 -12.000244z" fill-rule="nonzero"></path><path fill="#76a5af" d="m510.245 685.61444l0 0c0 -11.045715 9.751038 -20.0 21.779541 -20.0l0 0c12.028503 0 21.779541 8.954285 21.779541 20.0l0 0c0 11.045654 -9.751038 20.0 -21.779541 20.0l0 0c-12.028503 0 -21.779541 -8.954346 -21.779541 -20.0z" fill-rule="nonzero"></path><path fill="#c9daf8" d="m564.4743 669.00024l0 0c0 -6.6275635 5.3726807 -12.000244 12.000244 -12.000244l55.46405 0c3.1826782 0 6.2349854 1.2642822 8.485474 3.5147705c2.2504883 2.2504883 3.5147705 5.3027954 3.5147705 8.485474l0 47.99951c0 6.6275635 -5.3726807 12.000244 -12.000244 12.000244l-55.46405 0c-6.6275635 0 -12.000244 -5.3726807 -12.000244 -12.000244z" fill-rule="nonzero"></path><path stroke="#6fa8dc" stroke-width="2.0" stroke-linejoin="round" stroke-linecap="butt" d="m564.4743 669.00024l0 0c0 -6.6275635 5.3726807 -12.000244 12.000244 -12.000244l55.46405 0c3.1826782 0 6.2349854 1.2642822 8.485474 3.5147705c2.2504883 2.2504883 3.5147705 5.3027954 3.5147705 8.485474l0 47.99951c0 6.6275635 -5.3726807 12.000244 -12.000244 12.000244l-55.46405 0c-6.6275635 0 -12.000244 -5.3726807 -12.000244 -12.000244z" fill-rule="nonzero"></path><path fill="#76a5af" d="m589.7193 685.61444l0 0c0 -11.045715 9.751038 -20.0 21.779541 -20.0l0 0c12.028442 0 21.77948 8.954285 21.77948 20.0l0 0c0 11.045654 -9.751038 20.0 -21.77948 20.0l0 0c-12.028503 0 -21.779541 -8.954346 -21.779541 -20.0z" fill-rule="nonzero"></path><path fill="#000000" fill-opacity="0.0" d="m177.3622 740.0l292.0 0l0 48.0l-292.0 0z" fill-rule="nonzero"></path><path fill="#000000" d="m208.53062 770.92l0 -12.0l-4.46875 0l0 -1.59375l10.765625 0l0 1.59375l-4.5 0l0 12.0l-1.796875 0zm14.474106 -3.171875l1.71875 0.21875q-0.40625 1.5 -1.515625 2.34375q-1.09375 0.828125 -2.8125 0.828125q-2.15625 0 -3.421875 -1.328125q-1.265625 -1.328125 -1.265625 -3.734375q0 -2.484375 1.265625 -3.859375q1.28125 -1.375 3.328125 -1.375q1.984375 0 3.234375 1.34375q1.25 1.34375 1.25 3.796875q0 0.140625 -0.015625 0.4375l-7.34375 0q0.09375 1.625 0.921875 2.484375q0.828125 0.859375 2.0625 0.859375q0.90625 0 1.546875 -0.46875q0.65625 -0.484375 1.046875 -1.546875zm-5.484375 -2.703125l5.5 0q-0.109375 -1.234375 -0.625 -1.859375q-0.796875 -0.96875 -2.078125 -0.96875q-1.140625 0 -1.9375 0.78125q-0.78125 0.765625 -0.859375 2.046875zm9.094467 5.875l0 -9.859375l1.5 0l0 1.5q0.578125 -1.046875 1.0625 -1.375q0.484375 -0.34375 1.078125 -0.34375q0.84375 0 1.71875 0.546875l-0.578125 1.546875q-0.609375 -0.359375 -1.234375 -0.359375q-0.546875 0 -0.984375 0.328125q-0.421875 0.328125 -0.609375 0.90625q-0.28125 0.890625 -0.28125 1.953125l0 5.15625l-1.671875 0zm6.228302 0l0 -9.859375l1.5 0l0 1.390625q0.453125 -0.71875 1.21875 -1.15625q0.78125 -0.453125 1.765625 -0.453125q1.09375 0 1.796875 0.453125q0.703125 0.453125 0.984375 1.28125q1.171875 -1.734375 3.046875 -1.734375q1.46875 0 2.25 0.8125q0.796875 0.8125 0.796875 2.5l0 6.765625l-1.671875 0l0 -6.203125q0 -1.0 -0.15625 -1.4375q-0.15625 -0.453125 -0.59375 -0.71875q-0.421875 -0.265625 -1.0 -0.265625q-1.03125 0 -1.71875 0.6875q-0.6875 0.6875 -0.6875 2.21875l0 5.71875l-1.671875 0l0 -6.40625q0 -1.109375 -0.40625 -1.65625q-0.40625 -0.5625 -1.34375 -0.5625q-0.703125 0 -1.3125 0.375q-0.59375 0.359375 -0.859375 1.078125q-0.265625 0.71875 -0.265625 2.0625l0 5.109375l-1.671875 0zm15.556427 -11.6875l0 -1.90625l1.671875 0l0 1.90625l-1.671875 0zm0 11.6875l0 -9.859375l1.671875 0l0 9.859375l-1.671875 0zm4.129196 0l0 -9.859375l1.5 0l0 1.40625q1.09375 -1.625 3.140625 -1.625q0.890625 0 1.640625 0.328125q0.75 0.3125 1.109375 0.84375q0.375 0.515625 0.53125 1.21875q0.09375 0.46875 0.09375 1.625l0 6.0625l-1.671875 0l0 -6.0q0 -1.015625 -0.203125 -1.515625q-0.1875 -0.515625 -0.6875 -0.8125q-0.5 -0.296875 -1.171875 -0.296875q-1.0625 0 -1.84375 0.671875q-0.765625 0.671875 -0.765625 2.578125l0 5.375l-1.671875 0zm16.813232 -1.21875q-0.9375 0.796875 -1.796875 1.125q-0.859375 0.3125 -1.84375 0.3125q-1.609375 0 -2.484375 -0.78125q-0.875 -0.796875 -0.875 -2.03125q0 -0.734375 0.328125 -1.328125q0.328125 -0.59375 0.859375 -0.953125q0.53125 -0.359375 1.203125 -0.546875q0.5 -0.140625 1.484375 -0.25q2.03125 -0.25 2.984375 -0.578125q0 -0.34375 0 -0.4375q0 -1.015625 -0.46875 -1.4375q-0.640625 -0.5625 -1.90625 -0.5625q-1.171875 0 -1.734375 0.40625q-0.5625 0.40625 -0.828125 1.46875l-1.640625 -0.234375q0.234375 -1.046875 0.734375 -1.6875q0.515625 -0.640625 1.46875 -0.984375q0.96875 -0.359375 2.25 -0.359375q1.265625 0 2.046875 0.296875q0.78125 0.296875 1.15625 0.75q0.375 0.453125 0.515625 1.140625q0.09375 0.421875 0.09375 1.53125l0 2.234375q0 2.328125 0.09375 2.953125q0.109375 0.609375 0.4375 1.171875l-1.75 0q-0.265625 -0.515625 -0.328125 -1.21875zm-0.140625 -3.71875q-0.90625 0.359375 -2.734375 0.625q-1.03125 0.140625 -1.453125 0.328125q-0.421875 0.1875 -0.65625 0.546875q-0.234375 0.359375 -0.234375 0.796875q0 0.671875 0.5 1.125q0.515625 0.4375 1.484375 0.4375q0.96875 0 1.71875 -0.421875q0.75 -0.4375 1.109375 -1.15625q0.265625 -0.578125 0.265625 -1.671875l0 -0.609375zm4.047577 4.9375l0 -13.59375l1.671875 0l0 13.59375l-1.671875 0zm4.1448364 0l0 -13.59375l1.671875 0l0 13.59375l-1.671875 0zm4.097931 3.796875l-0.171875 -1.5625q0.546875 0.140625 0.953125 0.140625q0.546875 0 0.875 -0.1875q0.34375 -0.1875 0.5625 -0.515625q0.15625 -0.25 0.5 -1.25q0.046875 -0.140625 0.15625 -0.40625l-3.734375 -9.875l1.796875 0l2.046875 5.71875q0.40625 1.078125 0.71875 2.28125q0.28125 -1.15625 0.6875 -2.25l2.09375 -5.75l1.671875 0l-3.75 10.03125q-0.59375 1.625 -0.9375 2.234375q-0.4375 0.828125 -1.015625 1.203125q-0.578125 0.390625 -1.375 0.390625q-0.484375 0 -1.078125 -0.203125zm14.808319 -3.796875l0 -13.59375l4.6875 0q1.578125 0 2.421875 0.1875q1.15625 0.265625 1.984375 0.96875q1.078125 0.921875 1.609375 2.34375q0.53125 1.40625 0.53125 3.21875q0 1.546875 -0.359375 2.75q-0.359375 1.1875 -0.921875 1.984375q-0.5625 0.78125 -1.234375 1.234375q-0.671875 0.4375 -1.625 0.671875q-0.953125 0.234375 -2.1875 0.234375l-4.90625 0zm1.796875 -1.609375l2.90625 0q1.34375 0 2.109375 -0.25q0.765625 -0.25 1.21875 -0.703125q0.640625 -0.640625 1.0 -1.71875q0.359375 -1.078125 0.359375 -2.625q0 -2.125 -0.703125 -3.265625q-0.703125 -1.15625 -1.703125 -1.546875q-0.71875 -0.28125 -2.328125 -0.28125l-2.859375 0l0 10.390625zm11.472931 -10.078125l0 -1.90625l1.671875 0l0 1.90625l-1.671875 0zm0 11.6875l0 -9.859375l1.671875 0l0 9.859375l-1.671875 0zm4.5354614 0l0 -8.546875l-1.484375 0l0 -1.3125l1.484375 0l0 -1.046875q0 -0.984375 0.171875 -1.46875q0.234375 -0.65625 0.84375 -1.046875q0.609375 -0.40625 1.703125 -0.40625q0.703125 0 1.5625 0.15625l-0.25 1.46875q-0.515625 -0.09375 -0.984375 -0.09375q-0.765625 0 -1.078125 0.328125q-0.3125 0.3125 -0.3125 1.203125l0 0.90625l1.921875 0l0 1.3125l-1.921875 0l0 8.546875l-1.65625 0zm5.1832886 0l0 -8.546875l-1.484375 0l0 -1.3125l1.484375 0l0 -1.046875q0 -0.984375 0.171875 -1.46875q0.234375 -0.65625 0.84375 -1.046875q0.609375 -0.40625 1.703125 -0.40625q0.703125 0 1.5625 0.15625l-0.25 1.46875q-0.515625 -0.09375 -0.984375 -0.09375q-0.765625 0 -1.078125 0.328125q-0.3125 0.3125 -0.3125 1.203125l0 0.90625l1.921875 0l0 1.3125l-1.921875 0l0 8.546875l-1.65625 0zm11.527069 -3.171875l1.71875 0.21875q-0.40625 1.5 -1.515625 2.34375q-1.09375 0.828125 -2.8125 0.828125q-2.15625 0 -3.421875 -1.328125q-1.265625 -1.328125 -1.265625 -3.734375q0 -2.484375 1.265625 -3.859375q1.28125 -1.375 3.328125 -1.375q1.984375 0 3.234375 1.34375q1.25 1.34375 1.25 3.796875q0 0.140625 -0.015625 0.4375l-7.34375 0q0.09375 1.625 0.921875 2.484375q0.828125 0.859375 2.0625 0.859375q0.90625 0 1.546875 -0.46875q0.65625 -0.484375 1.046875 -1.546875zm-5.484375 -2.703125l5.5 0q-0.109375 -1.234375 -0.625 -1.859375q-0.796875 -0.96875 -2.078125 -0.96875q-1.140625 0 -1.9375 0.78125q-0.78125 0.765625 -0.859375 2.046875zm9.094452 5.875l0 -9.859375l1.5 0l0 1.5q0.578125 -1.046875 1.0625 -1.375q0.484375 -0.34375 1.078125 -0.34375q0.84375 0 1.71875 0.546875l-0.578125 1.546875q-0.609375 -0.359375 -1.234375 -0.359375q-0.546875 0 -0.984375 0.328125q-0.421875 0.328125 -0.609375 0.90625q-0.28125 0.890625 -0.28125 1.953125l0 5.15625l-1.671875 0zm12.978302 -3.171875l1.71875 0.21875q-0.40625 1.5 -1.515625 2.34375q-1.09375 0.828125 -2.8125 0.828125q-2.15625 0 -3.421875 -1.328125q-1.265625 -1.328125 -1.265625 -3.734375q0 -2.484375 1.265625 -3.859375q1.28125 -1.375 3.328125 -1.375q1.984375 0 3.234375 1.34375q1.25 1.34375 1.25 3.796875q0 0.140625 -0.015625 0.4375l-7.34375 0q0.09375 1.625 0.921875 2.484375q0.828125 0.859375 2.0625 0.859375q0.90625 0 1.546875 -0.46875q0.65625 -0.484375 1.046875 -1.546875zm-5.484375 -2.703125l5.5 0q-0.109375 -1.234375 -0.625 -1.859375q-0.796875 -0.96875 -2.078125 -0.96875q-1.140625 0 -1.9375 0.78125q-0.78125 0.765625 -0.859375 2.046875zm9.110107 5.875l0 -9.859375l1.5 0l0 1.40625q1.09375 -1.625 3.140625 -1.625q0.890625 0 1.640625 0.328125q0.75 0.3125 1.109375 0.84375q0.375 0.515625 0.53125 1.21875q0.09375 0.46875 0.09375 1.625l0 6.0625l-1.671875 0l0 -6.0q0 -1.015625 -0.203125 -1.515625q-0.1875 -0.515625 -0.6875 -0.8125q-0.5 -0.296875 -1.171875 -0.296875q-1.0625 0 -1.84375 0.671875q-0.765625 0.671875 -0.765625 2.578125l0 5.375l-1.671875 0zm14.031952 -1.5l0.234375 1.484375q-0.703125 0.140625 -1.265625 0.140625q-0.90625 0 -1.40625 -0.28125q-0.5 -0.296875 -0.703125 -0.75q-0.203125 -0.46875 -0.203125 -1.984375l0 -5.65625l-1.234375 0l0 -1.3125l1.234375 0l0 -2.4375l1.65625 -1.0l0 3.4375l1.6875 0l0 1.3125l-1.6875 0l0 5.75q0 0.71875 0.078125 0.921875q0.09375 0.203125 0.296875 0.328125q0.203125 0.125 0.578125 0.125q0.265625 0 0.734375 -0.078125zm1.5426941 -10.1875l0 -1.90625l1.671875 0l0 1.90625l-1.671875 0zm0 11.6875l0 -9.859375l1.671875 0l0 9.859375l-1.671875 0zm10.566681 -1.21875q-0.9375 0.796875 -1.796875 1.125q-0.859375 0.3125 -1.84375 0.3125q-1.609375 0 -2.484375 -0.78125q-0.875 -0.796875 -0.875 -2.03125q0 -0.734375 0.328125 -1.328125q0.328125 -0.59375 0.859375 -0.953125q0.53125 -0.359375 1.203125 -0.546875q0.5 -0.140625 1.484375 -0.25q2.03125 -0.25 2.984375 -0.578125q0 -0.34375 0 -0.4375q0 -1.015625 -0.46875 -1.4375q-0.640625 -0.5625 -1.90625 -0.5625q-1.171875 0 -1.734375 0.40625q-0.5625 0.40625 -0.828125 1.46875l-1.640625 -0.234375q0.234375 -1.046875 0.734375 -1.6875q0.515625 -0.640625 1.46875 -0.984375q0.96875 -0.359375 2.25 -0.359375q1.265625 0 2.046875 0.296875q0.78125 0.296875 1.15625 0.75q0.375 0.453125 0.515625 1.140625q0.09375 0.421875 0.09375 1.53125l0 2.234375q0 2.328125 0.09375 2.953125q0.109375 0.609375 0.4375 1.171875l-1.75 0q-0.265625 -0.515625 -0.328125 -1.21875zm-0.140625 -3.71875q-0.90625 0.359375 -2.734375 0.625q-1.03125 0.140625 -1.453125 0.328125q-0.421875 0.1875 -0.65625 0.546875q-0.234375 0.359375 -0.234375 0.796875q0 0.671875 0.5 1.125q0.515625 0.4375 1.484375 0.4375q0.96875 0 1.71875 -0.421875q0.75 -0.4375 1.109375 -1.15625q0.265625 -0.578125 0.265625 -1.671875l0 -0.609375zm7.7351074 3.4375l0.234375 1.484375q-0.703125 0.140625 -1.265625 0.140625q-0.90625 0 -1.40625 -0.28125q-0.5 -0.296875 -0.703125 -0.75q-0.203125 -0.46875 -0.203125 -1.984375l0 -5.65625l-1.234375 0l0 -1.3125l1.234375 0l0 -2.4375l1.65625 -1.0l0 3.4375l1.6875 0l0 1.3125l-1.6875 0l0 5.75q0 0.71875 0.078125 0.921875q0.09375 0.203125 0.296875 0.328125q0.203125 0.125 0.578125 0.125q0.265625 0 0.734375 -0.078125zm8.277039 -1.671875l1.71875 0.21875q-0.40625 1.5 -1.515625 2.34375q-1.09375 0.828125 -2.8125 0.828125q-2.15625 0 -3.421875 -1.328125q-1.265625 -1.328125 -1.265625 -3.734375q0 -2.484375 1.265625 -3.859375q1.28125 -1.375 3.328125 -1.375q1.984375 0 3.234375 1.34375q1.25 1.34375 1.25 3.796875q0 0.140625 -0.015625 0.4375l-7.34375 0q0.09375 1.625 0.921875 2.484375q0.828125 0.859375 2.0625 0.859375q0.90625 0 1.546875 -0.46875q0.65625 -0.484375 1.046875 -1.546875zm-5.484375 -2.703125l5.5 0q-0.109375 -1.234375 -0.625 -1.859375q-0.796875 -0.96875 -2.078125 -0.96875q-1.140625 0 -1.9375 0.78125q-0.78125 0.765625 -0.859375 2.046875zm15.500732 5.875l0 -1.25q-0.9375 1.46875 -2.75 1.46875q-1.171875 0 -2.171875 -0.640625q-0.984375 -0.65625 -1.53125 -1.8125q-0.53125 -1.171875 -0.53125 -2.6875q0 -1.46875 0.484375 -2.671875q0.5 -1.203125 1.46875 -1.84375q0.984375 -0.640625 2.203125 -0.640625q0.890625 0 1.578125 0.375q0.703125 0.375 1.140625 0.984375l0 -4.875l1.65625 0l0 13.59375l-1.546875 0zm-5.28125 -4.921875q0 1.890625 0.796875 2.828125q0.8125 0.9375 1.890625 0.9375q1.09375 0 1.859375 -0.890625q0.765625 -0.890625 0.765625 -2.734375q0 -2.015625 -0.78125 -2.953125q-0.78125 -0.953125 -1.921875 -0.953125q-1.109375 0 -1.859375 0.90625q-0.75 0.90625 -0.75 2.859375zm24.371521 0.15625l1.796875 0.453125q-0.5625 2.21875 -2.03125 3.390625q-1.46875 1.15625 -3.59375 1.15625q-2.203125 0 -3.578125 -0.890625q-1.375 -0.90625 -2.09375 -2.59375q-0.71875 -1.703125 -0.71875 -3.65625q0 -2.125 0.796875 -3.703125q0.8125 -1.578125 2.3125 -2.390625q1.5 -0.828125 3.296875 -0.828125q2.046875 0 3.4375 1.046875q1.390625 1.03125 1.9375 2.90625l-1.765625 0.421875q-0.46875 -1.484375 -1.375 -2.15625q-0.90625 -0.6875 -2.265625 -0.6875q-1.5625 0 -2.625 0.75q-1.046875 0.75 -1.484375 2.03125q-0.421875 1.265625 -0.421875 2.609375q0 1.734375 0.5 3.03125q0.515625 1.28125 1.578125 1.921875q1.078125 0.640625 2.3125 0.640625q1.515625 0 2.5625 -0.859375q1.046875 -0.875 1.421875 -2.59375zm10.301056 1.59375l1.71875 0.21875q-0.40625 1.5 -1.515625 2.34375q-1.09375 0.828125 -2.8125 0.828125q-2.15625 0 -3.421875 -1.328125q-1.265625 -1.328125 -1.265625 -3.734375q0 -2.484375 1.265625 -3.859375q1.28125 -1.375 3.328125 -1.375q1.984375 0 3.234375 1.34375q1.25 1.34375 1.25 3.796875q0 0.140625 -0.015625 0.4375l-7.34375 0q0.09375 1.625 0.921875 2.484375q0.828125 0.859375 2.0625 0.859375q0.90625 0 1.546875 -0.46875q0.65625 -0.484375 1.046875 -1.546875zm-5.484375 -2.703125l5.5 0q-0.109375 -1.234375 -0.625 -1.859375q-0.796875 -0.96875 -2.078125 -0.96875q-1.140625 0 -1.9375 0.78125q-0.78125 0.765625 -0.859375 2.046875zm9.078857 5.875l0 -13.59375l1.671875 0l0 13.59375l-1.671875 0zm4.1448364 0l0 -13.59375l1.671875 0l0 13.59375l-1.671875 0z" fill-rule="nonzero"></path><path fill="#000000" fill-opacity="0.0" d="m708.44617 251.34029l0 -202.14172l48.81891 0l0 202.14172z" fill-rule="nonzero"></path><path fill="#ffffff" d="m737.1225 237.1288l-0.4375 -4.5q2.265625 -0.40625 3.328125 -1.640625q1.0625 -1.25 1.0625 -3.359375q0 -2.234375 -0.9375 -3.359375q-0.953125 -1.140625 -2.21875 -1.140625q-0.8125 0 -1.375 0.484375q-0.578125 0.46875 -1.0 1.65625q-0.28125 0.8125 -1.0 3.703125q-0.921875 3.71875 -2.265625 5.21875q-1.890625 2.109375 -4.609375 2.109375q-1.75 0 -3.265625 -0.984375q-1.53125 -1.0 -2.328125 -2.859375q-0.796875 -1.875 -0.796875 -4.515625q0 -4.3125 1.890625 -6.484375q1.890625 -2.1875 5.046875 -2.296875l0.203125 4.625q-1.765625 0.296875 -2.53125 1.28125q-0.78125 0.96875 -0.78125 2.921875q0 2.015625 0.828125 3.15625q0.53125 0.734375 1.421875 0.734375q0.8125 0 1.390625 -0.6875q0.734375 -0.875 1.53125 -4.25q0.796875 -3.375 1.65625 -4.984375q0.84375 -1.625 2.328125 -2.53125q1.46875 -0.921875 3.640625 -0.921875q1.96875 0 3.6875 1.09375q1.71875 1.09375 2.5625 3.09375q0.828125 2.0 0.828125 4.984375q0 4.34375 -2.0 6.671875q-2.015625 2.328125 -5.859375 2.78125zm7.453125 -27.671875l-19.03125 0l0 6.796875l-3.875 0l0 -18.203125l3.875 0l0 6.78125l19.03125 0l0 4.625zm0 -14.390625l-22.90625 0l0 -16.984375l3.875 0l0 12.359375l5.078125 0l0 -11.5l3.859375 0l0 11.5l6.234375 0l0 -12.796875l3.859375 0l0 17.421875zm0 -21.28125l-22.90625 0l0 -6.921875l15.625 -4.15625l-15.625 -4.109375l0 -6.9375l22.90625 0l0 4.296875l-18.03125 0l18.03125 4.546875l0 4.453125l-18.03125 4.53125l18.03125 0l0 4.296875zm0 -26.765625l-22.90625 0l0 -4.5l15.296875 -9.375l-15.296875 0l0 -4.296875l22.90625 0l0 4.640625l-14.9375 9.234375l14.9375 0l0 4.296875zm0 -23.0625l-22.90625 0l0 -16.984375l3.875 0l0 12.359375l5.078125 0l0 -11.5l3.859375 0l0 11.5l6.234375 0l0 -12.796875l3.859375 0l0 17.421875zm-7.453125 -20.171875l-0.4375 -4.5q2.265625 -0.40625 3.328125 -1.640625q1.0625 -1.25 1.0625 -3.359375q0 -2.234375 -0.9375 -3.359375q-0.953125 -1.140625 -2.21875 -1.140625q-0.8125 0 -1.375 0.484375q-0.578125 0.46875 -1.0 1.65625q-0.28125 0.8125 -1.0 3.703125q-0.921875 3.71875 -2.265625 5.21875q-1.890625 2.109375 -4.609375 2.109375q-1.75 0 -3.265625 -0.984375q-1.53125 -1.0 -2.328125 -2.859375q-0.796875 -1.875 -0.796875 -4.515625q0 -4.3125 1.890625 -6.484375q1.890625 -2.1875 5.046875 -2.296875l0.203125 4.625q-1.765625 0.296875 -2.53125 1.28125q-0.78125 0.96875 -0.78125 2.921875q0 2.015625 0.828125 3.15625q0.53125 0.734375 1.421875 0.734375q0.8125 0 1.390625 -0.6875q0.734375 -0.875 1.53125 -4.25q0.796875 -3.375 1.65625 -4.984375q0.84375 -1.625 2.328125 -2.53125q1.46875 -0.921875 3.640625 -0.921875q1.96875 0 3.6875 1.09375q1.71875 1.09375 2.5625 3.09375q0.828125 2.0 0.828125 4.984375q0 4.34375 -2.0 6.671875q-2.015625 2.328125 -5.859375 2.78125zm0 -21.34375l-0.4375 -4.5q2.265625 -0.40625 3.328125 -1.640625q1.0625 -1.25 1.0625 -3.359375q0 -2.234375 -0.9375 -3.359375q-0.953125 -1.140625 -2.21875 -1.140625q-0.8125 0 -1.375 0.484375q-0.578125 0.46875 -1.0 1.65625q-0.28125 0.8125 -1.0 3.703125q-0.921875 3.71875 -2.265625 5.21875q-1.890625 2.109375 -4.609375 2.109375q-1.75 0 -3.265625 -0.984375q-1.53125 -1.0 -2.328125 -2.859375q-0.796875 -1.875 -0.796875 -4.515625q0 -4.3125 1.890625 -6.484375q1.890625 -2.1875 5.046875 -2.296875l0.203125 4.625q-1.765625 0.296875 -2.53125 1.28125q-0.78125 0.96875 -0.78125 2.921875q0 2.015625 0.828125 3.15625q0.53125 0.734375 1.421875 0.734375q0.8125 0 1.390625 -0.6875q0.734375 -0.875 1.53125 -4.25q0.796875 -3.375 1.65625 -4.984375q0.84375 -1.625 2.328125 -2.53125q1.46875 -0.921875 3.640625 -0.921875q1.96875 0 3.6875 1.09375q1.71875 1.09375 2.5625 3.09375q0.828125 2.0 0.828125 4.984375q0 4.34375 -2.0 6.671875q-2.015625 2.328125 -5.859375 2.78125z" fill-rule="nonzero"></path><path fill="#000000" fill-opacity="0.0" d="m672.0 733.0336l0 -314.58267l48.81891 0l0 314.58267z" fill-rule="nonzero"></path><path fill="#ffffff" d="m685.2232 717.422l0 -8.453125q0 -2.859375 0.4375 -4.359375q0.59375 -2.015625 2.109375 -3.453125q1.515625 -1.4375 3.71875 -2.1875q2.1875 -0.75 5.40625 -0.75q2.828125 0 4.875 0.703125q2.5 0.859375 4.046875 2.453125q1.171875 1.203125 1.828125 3.25q0.484375 1.53125 0.484375 4.09375l0 8.703125l-22.90625 0zm3.875 -4.625l15.171875 0l0 -3.453125q0 -1.9375 -0.21875 -2.796875q-0.28125 -1.125 -0.953125 -1.859375q-0.671875 -0.75 -2.203125 -1.21875q-1.546875 -0.46875 -4.203125 -0.46875q-2.65625 0 -4.078125 0.46875q-1.421875 0.46875 -2.21875 1.3125q-0.796875 0.84375 -1.078125 2.140625q-0.21875 0.96875 -0.21875 3.796875l0 2.078125zm19.03125 -18.359375l-22.90625 0l0 -4.625l22.90625 0l0 4.625zm0 -9.0625l-22.90625 0l0 -15.703125l3.875 0l0 11.078125l5.421875 0l0 -9.5625l3.875 0l0 9.5625l9.734375 0l0 4.625zm0 -19.546875l-22.90625 0l0 -15.703125l3.875 0l0 11.078125l5.421875 0l0 -9.5625l3.875 0l0 9.5625l9.734375 0l0 4.625zm0 -19.515625l-22.90625 0l0 -16.984375l3.875 0l0 12.359375l5.078125 0l0 -11.5l3.859375 0l0 11.5l6.234375 0l0 -12.796875l3.859375 0l0 17.421875zm0 -21.359375l-22.90625 0l0 -9.734375q0 -3.671875 0.625 -5.328125q0.609375 -1.671875 2.1875 -2.671875q1.578125 -1.0 3.609375 -1.0q2.578125 0 4.265625 1.515625q1.671875 1.515625 2.109375 4.53125q0.875 -1.5 1.921875 -2.46875q1.046875 -0.984375 3.71875 -2.640625l4.46875 -2.796875l0 5.53125l-4.984375 3.34375q-2.671875 1.78125 -3.359375 2.4375q-0.703125 0.65625 -0.953125 1.390625q-0.265625 0.734375 -0.265625 2.328125l0 0.9375l9.5625 0l0 4.625zm-13.21875 -4.625l0 -3.421875q0 -3.328125 -0.28125 -4.15625q-0.28125 -0.828125 -0.96875 -1.296875q-0.6875 -0.46875 -1.71875 -0.46875q-1.15625 0 -1.859375 0.625q-0.71875 0.609375 -0.90625 1.734375q-0.078125 0.5625 -0.078125 3.375l0 3.609375l5.8125 0zm13.21875 -18.46875l-22.90625 0l0 -16.984375l3.875 0l0 12.359375l5.078125 0l0 -11.5l3.859375 0l0 11.5l6.234375 0l0 -12.796875l3.859375 0l0 17.421875zm0 -21.390625l-22.90625 0l0 -4.5l15.296875 -9.375l-15.296875 0l0 -4.296875l22.90625 0l0 4.640625l-14.9375 9.234375l14.9375 0l0 4.296875zm0 -28.21875l-19.03125 0l0 6.796875l-3.875 0l0 -18.203125l3.875 0l0 6.78125l19.03125 0l0 4.625zm0 -14.25l-22.90625 0l0 -4.625l22.90625 0l0 4.625zm0 -29.68753l0 5.0312805l-5.203125 2.0l0 9.15625l5.203125 1.890625l0 4.90625l-22.90625 -8.921875l0 -4.890625l22.90625 -9.1719055zm-9.0625 8.5156555l-8.5 3.15625l8.5 3.09375l0 -6.25zm9.0625 -16.12503l-19.03125 0l0 6.796875l-3.875 0l0 -18.203125l3.875 0l0 6.78125l19.03125 0l0 4.625zm0 -14.25l-22.90625 0l0 -4.625l22.90625 0l0 4.625zm-11.3125 -8.09375q-3.5 0 -5.875 -1.046875q-1.75 -0.7812195 -3.140625 -2.1249695q-1.390625 -1.359375 -2.0625 -2.96875q-0.90625 -2.140625 -0.90625 -4.9375q0 -5.0625 3.140625 -8.09375q3.140625 -3.046875 8.734375 -3.046875q5.546875 0 8.6875 3.015625q3.125 3.015625 3.125 8.0625q0 5.109375 -3.109375 8.125q-3.125 3.0155945 -8.59375 3.0155945zm-0.15625 -4.7655945q3.890625 0 5.90625 -1.796875q2.0 -1.796875 2.0 -4.5625q0 -2.765625 -1.984375 -4.53125q-2.0 -1.78125 -5.984375 -1.78125q-3.9375 0 -5.875 1.734375q-1.9375 1.71875 -1.9375 4.578125q0 2.859375 1.96875 4.609375q1.953125 1.75 5.90625 1.75zm11.46875 -21.109375l-22.90625 0l0 -4.5l15.296875 -9.375l-15.296875 0l0 -4.296875l22.90625 0l0 4.640625l-14.9375 9.234375l14.9375 0l0 4.296875z" fill-rule="nonzero"></path><path fill="#000000" fill-opacity="0.0" d="m286.4553 312.6911l-69.79529 64.88187" fill-rule="nonzero"></path><path stroke="#000000" stroke-width="2.0" stroke-linejoin="round" stroke-linecap="butt" d="m286.4553 312.6911l-61.006287 56.71161" fill-rule="evenodd"></path><path fill="#000000" stroke="#000000" stroke-width="2.0" stroke-linecap="butt" d="m223.19981 366.98322l-4.398361 8.599091l8.8967285 -3.7600708z" fill-rule="evenodd"></path><path fill="#000000" fill-opacity="0.0" d="m351.73294 312.6911l69.79529 64.88187" fill-rule="nonzero"></path><path stroke="#000000" stroke-width="2.0" stroke-linejoin="round" stroke-linecap="butt" d="m351.73294 312.6911l61.006287 56.71161" fill-rule="evenodd"></path><path fill="#000000" stroke="#000000" stroke-width="2.0" stroke-linecap="butt" d="m410.49002 371.82224l8.896759 3.7600708l-4.3983765 -8.599091z" fill-rule="evenodd"></path><path fill="#000000" fill-opacity="0.0" d="m480.95255 220.41129c-4.394928 -11.891129 -9.719574 -54.571747 -26.369629 -71.34671c-16.650024 -16.774948 -61.275513 -24.419182 -73.53061 -29.303024" fill-rule="nonzero"></path><path stroke="#000000" stroke-width="2.0" stroke-linejoin="round" stroke-linecap="butt" d="m477.83597 208.82306l-0.009857178 -0.04185486c-0.16558838 -0.7077484 -0.3343506 -1.4335022 -0.50653076 -2.1754456c-1.3773499 -5.935608 -2.9753113 -12.909683 -4.9561768 -20.036392c-3.961792 -14.253418 -9.455444 -29.11731 -17.780487 -37.50479c-16.650055 -16.774948 -61.275513 -24.419182 -73.53058 -29.303024" fill-rule="evenodd"></path><path fill="#000000" stroke="#000000" stroke-width="2.0" stroke-linecap="butt" d="m474.64584 209.68102l5.5473633 7.906784l0.8328552 -9.622711z" fill-rule="evenodd"></path><path fill="#000000" fill-opacity="0.0" d="m363.71024 140.46643c5.5216675 11.508102 14.88031 53.71089 33.130096 69.048584c18.249817 15.337692 63.640533 19.14798 76.36862 22.977585" fill-rule="nonzero"></path><path stroke="#000000" stroke-width="2.0" stroke-linejoin="round" stroke-linecap="butt" d="m367.90002 151.71124l0.037506104 0.11123657c0.23257446 0.69322205 0.47000122 1.4040985 0.7123718 2.1309052c1.9389954 5.814499 4.196808 12.6480255 6.852356 19.601242c5.3110657 13.906418 12.213196 28.29155 21.338074 35.96039c18.249817 15.337677 63.640503 19.14798 76.36862 22.977585" fill-rule="evenodd"></path><path fill="#000000" stroke="#000000" stroke-width="2.0" stroke-linecap="butt" d="m370.99557 150.55785l-6.2645264 -7.3516083l0.073394775 9.658417z" fill-rule="evenodd"></path></g></svg>

